<?xml version="1.0" standalone="no"?>
<!DOCTYPE svg PUBLIC "-//W3C//DTD SVG 20010904//EN"
 "http://www.w3.org/TR/2001/REC-SVG-20010904/DTD/svg10.dtd">
<svg version="1.0" xmlns="http://www.w3.org/2000/svg"
 width="640.000000pt" height="640.000000pt" viewBox="0 0 640.000000 640.000000"
 preserveAspectRatio="xMidYMid meet">
<metadata>
Created by potrace 1.11, written by Peter Selinger 2001-2013
</metadata>
<g transform="translate(0.000000,640.000000) scale(0.100000,-0.100000)"
fill="#000000" stroke="none">
<path d="M3147 6370 c-26 -16 -50 -30 -53 -30 -2 0 -23 -11 -45 -26 -22 -14
-55 -33 -72 -43 -18 -10 -106 -61 -197 -113 -91 -53 -181 -105 -200 -115 -180
-102 -396 -229 -398 -235 -2 -4 -8 -8 -13 -8 -5 0 -50 -24 -99 -52 -50 -29
-102 -60 -118 -68 -15 -8 -45 -26 -67 -39 -46 -27 -93 -54 -148 -85 -21 -11
-46 -26 -55 -31 -29 -17 -100 -59 -297 -172 -104 -60 -293 -169 -419 -242
-240 -139 -285 -165 -326 -188 -14 -8 -47 -28 -75 -44 -27 -17 -58 -33 -67
-36 -10 -3 -18 -9 -18 -14 0 -5 -6 -9 -14 -9 -7 0 -19 -6 -25 -14 -19 -23 -18
-3194 1 -3211 7 -7 34 -24 61 -39 99 -54 143 -80 179 -103 21 -12 42 -23 48
-23 5 0 10 -4 10 -10 0 -5 4 -10 9 -10 5 0 49 -23 98 -51 48 -29 108 -63 133
-77 25 -14 62 -36 82 -49 21 -12 42 -23 48 -23 5 0 10 -4 10 -10 0 -5 5 -10
10 -10 9 0 252 -137 320 -180 8 -5 38 -22 65 -38 103 -59 134 -77 295 -170
182 -105 267 -154 320 -184 19 -11 107 -62 195 -113 88 -51 176 -102 195 -112
19 -11 59 -34 88 -52 29 -17 57 -31 62 -31 6 0 10 -4 10 -10 0 -5 4 -10 9 -10
7 0 280 -155 371 -211 8 -5 43 -25 77 -44 l63 -36 67 39 c38 22 84 49 103 59
36 21 313 181 532 309 70 41 131 74 137 74 5 0 11 4 13 8 2 4 44 31 93 58 87
49 731 421 1090 629 55 32 128 75 163 94 84 48 423 243 444 256 9 5 42 25 72
43 l56 32 0 58 c1 31 1 750 1 1597 0 1515 0 1540 -19 1555 -21 16 -84 53 -92
54 -3 1 -19 11 -37 24 -17 12 -34 22 -37 22 -6 0 -247 137 -296 168 -14 9 -27
17 -30 17 -6 1 -52 29 -92 56 -15 11 -30 19 -34 19 -3 0 -59 32 -123 70 -65
39 -121 70 -124 70 -3 0 -26 14 -50 30 -25 17 -50 30 -56 30 -6 0 -11 5 -11
10 0 6 -4 10 -10 10 -7 0 -123 64 -200 111 -14 8 -75 43 -160 92 -19 11 -55
31 -80 45 -25 13 -65 37 -90 52 -25 15 -121 72 -215 125 -93 54 -188 109 -210
122 -22 13 -48 26 -57 30 -10 3 -18 9 -18 14 0 5 -5 9 -10 9 -6 0 -154 83
-329 185 -342 198 -390 225 -394 225 -2 0 -24 -13 -50 -30z m95 -364 c24 -13
111 -63 193 -111 83 -48 166 -97 185 -107 19 -11 64 -37 100 -58 36 -21 82
-47 103 -59 21 -12 107 -61 190 -110 84 -48 181 -104 217 -125 36 -20 72 -41
80 -46 24 -16 312 -181 356 -206 22 -12 58 -33 80 -46 21 -14 46 -28 54 -31 8
-4 31 -17 50 -28 19 -12 157 -91 305 -176 149 -86 281 -163 295 -172 14 -8 36
-22 50 -29 14 -7 53 -30 88 -50 l62 -36 0 -1416 0 -1416 -126 -72 c-69 -40
-129 -72 -135 -72 -5 0 -9 -3 -9 -8 0 -4 -21 -18 -47 -32 -27 -13 -72 -39
-101 -57 -29 -18 -55 -33 -58 -33 -3 0 -28 -15 -57 -33 -29 -19 -54 -33 -57
-33 -6 0 -52 -28 -92 -55 -15 -11 -30 -19 -32 -19 -5 0 -309 -174 -646 -370
-231 -134 -356 -206 -364 -209 -6 -2 -18 -9 -26 -16 -8 -7 -42 -27 -75 -44
-66 -35 -97 -53 -105 -61 -6 -6 -39 -25 -93 -53 -23 -11 -44 -23 -47 -26 -5
-6 -17 -13 -99 -59 -25 -14 -63 -36 -83 -49 -21 -12 -39 -23 -42 -23 -2 0 -33
-17 -67 -38 -85 -51 -94 -54 -121 -34 -13 10 -48 31 -78 47 -30 16 -111 62
-179 102 -67 40 -124 73 -126 73 -2 0 -49 27 -104 60 -56 33 -106 60 -111 60
-6 0 -10 5 -10 10 0 6 -5 10 -11 10 -6 0 -49 23 -97 51 -48 29 -107 63 -132
77 -25 13 -49 28 -55 32 -5 4 -30 18 -55 32 -43 24 -139 79 -170 98 -55 33
-153 90 -156 90 -2 0 -33 18 -69 40 -36 22 -70 40 -75 40 -6 0 -10 4 -10 10 0
5 -3 9 -7 8 -5 -1 -19 5 -33 14 -43 27 -151 88 -156 88 -3 0 -18 8 -32 19 -15
10 -44 28 -64 40 -21 11 -54 30 -73 41 -19 11 -50 28 -68 39 -49 27 -284 164
-343 198 -68 41 -143 83 -177 100 l-27 14 0 1418 0 1418 45 24 c25 13 45 27
45 31 0 5 7 8 15 8 9 0 28 9 43 19 43 30 203 121 213 121 5 0 9 5 9 10 0 6 5
10 10 10 6 0 107 56 225 125 118 69 219 125 224 125 5 0 11 4 13 8 2 5 28 22
58 38 30 17 100 57 155 89 55 32 111 65 125 72 14 8 43 25 65 39 22 13 47 27
55 31 8 3 23 13 33 21 9 8 17 11 17 7 0 -4 8 -1 18 7 9 8 53 35 97 60 44 25
163 94 263 152 101 58 188 106 193 106 5 0 9 5 9 10 0 6 4 10 10 10 5 0 92 48
192 107 101 58 203 117 228 131 25 14 54 31 65 38 24 17 17 18 67 -10z"/>
</g>
</svg>
